<svg xmlns="http://www.w3.org/2000/svg" width="118.714" height="118.72" viewBox="0 0 118.714 118.72">
  <defs>
    <style>
      .cls-1 {
        fill: #313549;
        fill-rule: evenodd;
      }
    </style>
  </defs>
  <path class="cls-1" d="M1085.62,5941.67c-1.59,4.64-4.81,8.12-8.4,11.19a15.287,15.287,0,0,0-5.6,13.16c0.11,2.21.01,4.44-.07,6.67-0.25,7.62-4.48,11.87-12.1,12.14-3.62.13-7.25,0.17-10.87,0.29a9.735,9.735,0,0,0-6.52,3.03c-2.37,2.27-4.65,4.63-7.11,6.79-6.03,5.31-11.46,5.28-17.47-.06a58.012,58.012,0,0,1-5.12-5.04,14.21,14.21,0,0,0-11.66-4.99,58.53,58.53,0,0,1-9.273-.31c-6.9-.95-10.2-4.82-10.447-11.83-0.131-3.67-.178-7.36-0.307-11.04a9.185,9.185,0,0,0-2.757-6.09c-2.214-2.33-4.493-4.61-6.7-6.94a21.3,21.3,0,0,1-2.073-2.61c-2.963-4.34-3.039-8.8.056-13.04a33.205,33.205,0,0,1,5.51-6.1A16.607,16.607,0,0,0,981,5912.06a38.628,38.628,0,0,1,.306-7.69c0.869-6.37,4.749-9.79,11.228-10.08,3.622-.15,7.249-0.21,10.871-0.28a10.239,10.239,0,0,0,7.08-3.04c2.4-2.31,4.74-4.68,7.2-6.94a13.437,13.437,0,0,1,7.38-3.76,10.99,10.99,0,0,1,8.75,2.86c2.6,2.25,5.07,4.68,7.5,7.12a11.92,11.92,0,0,0,8.56,3.8,96.287,96.287,0,0,1,11.9.57c6.25,0.88,9.48,4.76,9.77,11.12,0.16,3.62.21,7.25,0.28,10.87a10.451,10.451,0,0,0,3.26,7.34c1.19,1.21,2.37,2.43,3.59,3.61,2.95,2.86,5.62,5.91,6.95,9.9v4.21Zm-19.09-29.11c0.06,0,.11-0.01.17-0.01-0.13-2.39-.18-4.79-0.39-7.17-0.33-3.65-1.97-5.47-5.56-5.86a57.223,57.223,0,0,0-8.58-.33,19.054,19.054,0,0,1-15.88-6.7,47.072,47.072,0,0,0-5.42-5.24c-3.46-2.84-5.97-2.81-9.41.04a47.314,47.314,0,0,0-5.31,5.09,19.209,19.209,0,0,1-16.361,6.82,47.05,47.05,0,0,0-8.219.31c-3.481.42-5.044,1.97-5.362,5.41-0.327,3.54-.333,7.12-0.4,10.68a16.66,16.66,0,0,1-5.049,12.12c-1.962,1.93-3.958,3.83-5.8,5.87-4.194,4.62-4.15,7.37.13,11.95,2.155,2.31,4.438,4.5,6.591,6.81a13.344,13.344,0,0,1,3.863,8.62c0.168,3.68.183,7.36,0.32,11.04,0.2,5.35,2.038,7.3,7.287,7.66a61.285,61.285,0,0,0,7.541.2c6.33-.35,11.32,2.11,15.49,6.73a48.849,48.849,0,0,0,5.74,5.4c3.14,2.49,5.52,2.39,8.72-.07a30.386,30.386,0,0,0,2.63-2.31c1.77-1.71,3.49-3.47,5.25-5.18a15.465,15.465,0,0,1,11.08-4.49c3.44-.03,6.9-0.09,10.34-0.32,4.22-.29,6.12-2.23,6.38-6.43,0.19-3.15.36-6.31,0.29-9.46a17.2,17.2,0,0,1,5.85-13.37,75.025,75.025,0,0,0,5.63-5.79c3.28-3.87,3.23-6.57-.14-10.37-1.7-1.93-3.58-3.7-5.39-5.52-2.91-2.91-5.36-6.07-5.76-10.35C1066.63,5916.42,1066.62,5914.49,1066.53,5912.56Zm-40.79,55.19a28.519,28.519,0,0,1-27.417-22.98c-3.06-15.54,8.447-31.48,24.247-33.34a29.421,29.421,0,0,1,11.45.88c2.05,0.57,2.89,1.83,2.41,3.39-0.45,1.45-1.78,1.95-3.75,1.41a23.332,23.332,0,0,0-29.1,16.81c-3.23,12.39,4.44,25,17.2,28.26,14.06,3.6,28.33-7.19,28.72-21.7,0.02-.99-0.04-1.99-0.02-2.98a2.5,2.5,0,0,1,2.36-2.74,2.4,2.4,0,0,1,2.58,2.32,23.6,23.6,0,0,1-1.28,11.22c-4.06,11.23-11.98,17.83-23.9,19.43A25.543,25.543,0,0,1,1025.74,5967.75Zm-0.06-18.48c-4.92-4.94-9.81-9.81-14.64-14.73a2.247,2.247,0,0,1-.05-3.43,2.354,2.354,0,0,1,3.56.06q4.89,4.785,9.68,9.67a11.131,11.131,0,0,1,1.18,1.87c4-4.04,7.52-7.62,11.06-11.17,5.13-5.14,10.24-10.28,15.44-15.33a4.327,4.327,0,0,1,2.89-1.1c1.57,0.1,2.32,2.17,1.48,3.56a6.078,6.078,0,0,1-.92,1.05q-14.265,14.28-28.54,28.54C1026.5,5948.58,1026.14,5948.87,1025.68,5949.27Z" transform="translate(-966.906 -5880.19)"/>
</svg>
