<svg xmlns="http://www.w3.org/2000/svg" width="112.624" height="112.71" viewBox="0 0 112.624 112.71">
  <defs>
    <style>
      .cls-1 {
        fill: #313549;
        fill-rule: evenodd;
      }
    </style>
  </defs>
  <path class="cls-1" d="M384.3,6000.61c-2.057-.3-4.114-0.59-6.17-0.9a6.422,6.422,0,0,1-.966-0.2,2.19,2.19,0,0,1-1.746-2.52,2.291,2.291,0,0,1,2.694-1.82,81.565,81.565,0,0,0,9.047.97c17.04,0.11,31.014-6.48,41.756-19.71a49.332,49.332,0,0,0,10.96-26.97,51.261,51.261,0,0,0-10.494-36.81c-0.043-.05-0.108-0.09-0.236-0.2a9.4,9.4,0,0,1-8.2.21,9.009,9.009,0,0,1-4.443-4.24,9.262,9.262,0,1,1,16.139.75c1.878,3.07,3.854,5.98,5.51,9.06a53.9,53.9,0,0,1,6.216,21.35,7.627,7.627,0,0,0,.2.96v7.7a7.042,7.042,0,0,0-.212.95,54.016,54.016,0,0,1-9.409,26.59c-8.991,13.03-21.265,21.11-36.887,23.97-1.934.36-3.893,0.58-5.84,0.86H384.3Zm40.506-91.53a4.84,4.84,0,1,0-4.878-4.79A4.91,4.91,0,0,0,424.8,5909.08Zm-18.928,65.54c-2.834,1.11-5.356,2.07-7.851,3.1a1.252,1.252,0,0,0-.656.9c-0.083,1.13-.006,2.27-0.047,3.4a2.132,2.132,0,0,1-2.36,2.3q-6.708.015-13.415,0a2.129,2.129,0,0,1-2.357-2.3c-0.041-1.14.036-2.28-.046-3.41a1.258,1.258,0,0,0-.659-0.89c-2.5-1.03-5.018-2-7.848-3.1-0.626.66-1.456,1.58-2.326,2.46-1.386,1.39-2.49,1.4-3.86.03q-4.516-4.5-9.017-9.02c-1.38-1.39-1.366-2.46.008-3.86,0.844-.86,2.162-1.64,2.365-2.64,0.186-.91-0.885-2.05-1.323-3.13-0.579-1.42-1.129-2.86-1.591-4.32a0.927,0.927,0,0,0-1.06-.81q-1.647.06-3.3,0a2.124,2.124,0,0,1-2.3-2.35q-0.018-6.7,0-13.42a2.138,2.138,0,0,1,2.287-2.38c1.134-.05,2.276.04,3.406-0.05a1.285,1.285,0,0,0,.892-0.66c0.993-2.28,1.9-4.59,2.893-6.86a0.893,0.893,0,0,0-.177-1.23c-0.782-.72-1.52-1.49-2.258-2.25a2.2,2.2,0,0,1-.031-3.47q4.684-4.725,9.409-9.41a2.188,2.188,0,0,1,3.464.01c0.792,0.76,1.529,1.59,2.353,2.31a1.186,1.186,0,0,0,1.007.15q3.564-1.41,7.083-2.92a1.209,1.209,0,0,0,.583-0.86c0.072-1.13,0-2.27.043-3.41a2.123,2.123,0,0,1,2.362-2.29q6.708-.015,13.415,0a2.123,2.123,0,0,1,2.356,2.3c0.04,1.1.034,2.2,0,3.3a0.924,0.924,0,0,0,.717,1.03q3.467,1.35,6.875,2.85a0.9,0.9,0,0,0,1.226-.2c0.747-.81,1.531-1.58,2.329-2.34a2.148,2.148,0,0,1,3.306,0q4.812,4.74,9.566,9.56a2.151,2.151,0,0,1-.037,3.31c-0.755.8-1.527,1.59-2.336,2.33a0.892,0.892,0,0,0-.169,1.23c0.984,2.24,1.941,4.5,2.813,6.78a0.96,0.96,0,0,0,1.083.78c1.1-.03,2.2-0.04,3.3.01a2.138,2.138,0,0,1,2.282,2.38q0.018,6.72,0,13.42a2.128,2.128,0,0,1-2.306,2.35c-1.062.04-2.127,0.04-3.188,0a1.023,1.023,0,0,0-1.176.81c-0.86,2.29-1.827,4.54-2.813,6.78a0.879,0.879,0,0,0,.173,1.22c0.81,0.74,1.578,1.53,2.336,2.33a2.176,2.176,0,0,1,0,3.39q-4.716,4.77-9.485,9.49a2.161,2.161,0,0,1-3.385-.05C407.493,5976.38,406.61,5975.4,405.873,5974.62Zm10.818-52.12c-2.272-2.28-4.416-4.43-6.751-6.77-0.715.8-1.417,1.64-2.186,2.42a2.289,2.289,0,0,1-3.335.38,31.629,31.629,0,0,0-9.374-3.9c-1.648-.4-2.142-1.07-2.149-2.8,0-1.05,0-2.1,0-3.12H383.69a1.913,1.913,0,0,0-.065.29c-0.006.95-.007,1.9-0.013,2.85-0.01,1.71-.52,2.41-2.174,2.8a31.351,31.351,0,0,0-9.375,3.9,2.279,2.279,0,0,1-3.327-.43c-0.758-.77-1.443-1.62-2.13-2.41-2.378,2.4-4.517,4.55-6.793,6.84,0.779,0.73,1.635,1.47,2.428,2.28a2.205,2.205,0,0,1,.357,3.16,31.449,31.449,0,0,0-3.949,9.48c-0.384,1.63-1.1,2.15-2.815,2.16H352.69v9.29c1.165,0,2.259-.01,3.353,0a2.248,2.248,0,0,1,2.565,2.01,32.059,32.059,0,0,0,3.981,9.58,2.208,2.208,0,0,1-.345,3.17c-0.8.8-1.653,1.55-2.447,2.29,2.314,2.29,4.488,4.44,6.8,6.73,0.285-.34.625-0.77,1-1.18,0.4-.43.817-0.84,1.242-1.24a2.175,2.175,0,0,1,3.067-.41,32.453,32.453,0,0,0,9.773,4.06,2.261,2.261,0,0,1,1.936,2.54c0.013,1.12,0,2.25,0,3.4h9.17a1.154,1.154,0,0,0,.092-0.26c0.011-.99.015-1.98,0.022-2.97,0.012-1.69.536-2.4,2.192-2.78a30.984,30.984,0,0,0,9.374-3.9,2.215,2.215,0,0,1,3.245.35c0.8,0.8,1.541,1.65,2.162,2.32,2.311-2.31,4.473-4.47,6.716-6.71-0.311-.28-0.72-0.65-1.114-1.03-0.422-.41-0.84-0.82-1.242-1.24a2.193,2.193,0,0,1-.346-3.08,31.85,31.85,0,0,0,3.993-9.57c0.379-1.6,1.064-2.08,2.74-2.08,1.081-.01,2.162,0,3.184,0v-9.29c-1.188,0-2.287.01-3.385-.01a2.265,2.265,0,0,1-2.5-1.98,32.42,32.42,0,0,0-4.024-9.68,2.19,2.19,0,0,1,.4-3.15C415.06,5924.02,415.872,5923.28,416.691,5922.5Zm-69.407,53.6c5.453-2,9.938-.71,12.444,3.53a9.259,9.259,0,1,1-15.8-.33c-1.535-2.38-3.172-4.67-4.557-7.11a55.125,55.125,0,0,1-7.217-32.61,56.318,56.318,0,0,1,66.546-50.7c0.216,0.04.427,0.11,0.64,0.16a2.228,2.228,0,0,1,1.853,2.65,2.313,2.313,0,0,1-2.795,1.69c-1.371-.22-2.742-0.45-4.119-0.62a47.99,47.99,0,0,0-23.13,2.55c-17.683,6.62-29.088,19.11-33.421,37.51-3.637,15.44-.286,29.69,8.982,42.55C346.88,5975.6,347.067,5975.83,347.284,5976.1Zm4.481,3.38a4.84,4.84,0,1,0,4.82,4.84A4.9,4.9,0,0,0,351.765,5979.48Zm18.273-35.28a18.216,18.216,0,1,1,18.107,18.3A18.314,18.314,0,0,1,370.038,5944.2Zm18.213-13.66a13.74,13.74,0,1,0,13.739,13.76A13.715,13.715,0,0,0,388.251,5930.54Z" transform="translate(-331.938 -5887.91)"/>
</svg>
