<svg xmlns="http://www.w3.org/2000/svg" width="146.68" height="104.15" viewBox="0 0 146.68 104.15">
  <defs>
    <style>
      .cls-1 {
        fill: #313549;
        fill-rule: evenodd;
      }
    </style>
  </defs>
  <path class="cls-1" d="M1616.55,5986.33a22.589,22.589,0,0,1-3.45-1.6,7.46,7.46,0,0,1-3.2-6.15h-1.66c-8.3,0-16.61-.09-24.9.04-3.81.07-7.19-2.7-6.9-6.96,0.29-4.22-.05-8.53.67-12.66,2.06-11.88,12.5-21.34,24.46-22.78a28.94,28.94,0,0,1,18.43,3.63,1.337,1.337,0,0,0,1.93-.31,38.536,38.536,0,0,1,22.48-10.91c12.04-1.54,22.72,1.77,31.94,9.71,0.35,0.3.7,0.62,1.09,0.97a31.96,31.96,0,0,1,11.03-4.61c16.02-3.38,32.16,8,34.34,24.23a3.8,3.8,0,0,0,.27.78v12.31c-1.35,3.63-4.04,4.9-7.81,4.84-7.95-.13-15.9-0.04-23.86-0.04h-1.83c0,0.77.02,1.37-.01,1.98a7.352,7.352,0,0,1-4.36,6.67,21.234,21.234,0,0,1-2.22.86h-66.44Zm33.22-4.85h31.34c2.71,0,3.68-.97,3.7-3.7,0.01-1.38-.01-2.76-0.01-4.14-0.01-4.95.23-9.9-1.12-14.77a34.939,34.939,0,0,0-46.99-23.24c-13.76,5.71-21.18,16.31-21.92,31.3-0.18,3.61-.05,7.24-0.05,10.86,0,2.71.99,3.69,3.72,3.69h31.33Zm39.75-9.75a1.24,1.24,0,0,0,.35.24q13.44,0.03,26.88.05a1.426,1.426,0,0,0,1.54-1.65c-0.01-1.82-.02-3.63,0-5.44a28.18,28.18,0,0,0-1.06-9.17,24.328,24.328,0,0,0-26.38-16.62,22.982,22.982,0,0,0-10.09,3.79C1687.6,5951.43,1690.27,5961.11,1689.52,5971.73Zm-71.66-27.61a24.516,24.516,0,0,0-13.28-3.35c-10.69.23-20.52,7.98-22.61,18.43-0.81,4.01-.55,8.23-0.71,12.36-0.07,1.99.22,2.21,2.23,2.21h24.89c0.5,0,1-.05,1.7-0.08C1609.2,5962.89,1611.15,5952.95,1617.86,5944.12Zm9.24-40.33a21.875,21.875,0,1,1,21.73,21.79A21.784,21.784,0,0,1,1627.1,5903.79Zm21.88-16.79a16.9,16.9,0,1,0,17.1,16.94A17.021,17.021,0,0,0,1648.98,5887Zm62.09,26.98a17.026,17.026,0,1,1-16.74-16.94A16.959,16.959,0,0,1,1711.07,5913.98Zm-4.78-.05a12.231,12.231,0,1,0-12.28,12.04A12.056,12.056,0,0,0,1706.29,5913.93Zm-100.81,18a16.866,16.866,0,1,1,17.04-16.85A16.929,16.929,0,0,1,1605.48,5931.93Zm-0.02-4.81a12.057,12.057,0,1,0-12.22-12.09A12.128,12.128,0,0,0,1605.46,5927.12Z" transform="translate(-1576.41 -5882.19)"/>
</svg>
