<svg xmlns="http://www.w3.org/2000/svg" width="120.34" height="98.12" viewBox="0 0 120.34 98.12">
  <defs>
    <style>
      .cls-1 {
        fill: #313549;
        fill-rule: evenodd;
      }
    </style>
  </defs>
  <path class="cls-1" d="M2165.62,5886.23h74.85a1.594,1.594,0,0,0,.32.16,11.077,11.077,0,0,1,9.15,9.08,1.536,1.536,0,0,0,1.04.85,10.667,10.667,0,0,1,7.53,5.31,37.189,37.189,0,0,1,1.78,4.32,0.716,0.716,0,0,0,.26.03c5.98-.24,10.62,4.62,10.57,10.94-0.15,18.91-.05,37.81-0.05,56.71,0,6.35-4.23,10.67-10.59,10.68q-39.18.03-78.37,0a10.353,10.353,0,0,1-7.32-2.66,10.487,10.487,0,0,1-3.33-7.17c-0.83-.14-1.62-0.2-2.37-0.4a10.877,10.877,0,0,1-8.28-8.66,1.215,1.215,0,0,0-1.18-1.13,10.851,10.851,0,0,1-5.48-2.76,13.606,13.606,0,0,1-3.36-5.4v-56.25c0.13-.31.28-0.62,0.38-0.94a16.957,16.957,0,0,1,9.69-11.22A40.446,40.446,0,0,1,2165.62,5886.23Zm71.59,73.25c-0.12.18-.23,0.35-0.34,0.52,1.74,1.58,3.53,3.11,5.23,4.74,1.24,1.19,1.26,2.63.22,3.63s-2.38.91-3.63-.35c-1.98-2.01-3.94-4.05-5.9-6.08q-13.32-13.725-26.62-27.46c-1.69-1.74-3.43-1.95-5.07-.51q-12.15,10.7-24.24,21.43a2.206,2.206,0,0,0-.61,1.5c-0.05,5.57-.04,11.14-0.03,16.71,0.01,3.79,2.12,5.89,5.91,5.9,5.65,0.01,11.3,0,16.95,0,20.44,0,40.88-.04,61.32.03a5.605,5.605,0,0,0,5.99-5.99c-0.08-4.07-.01-8.15-0.04-12.23a1.7,1.7,0,0,0-.46-1.2q-6.21-4.755-12.48-9.44a3.167,3.167,0,0,0-4.03-.05C2245.31,5953.56,2241.26,5956.53,2237.21,5959.48Zm-3.45-3.36c4.19-3.05,8.31-6.06,12.43-9.05,3.53-2.57,6.89-2.56,10.38.04,2.2,1.64,4.38,3.3,6.57,4.95,1.01,0.77,2.04,1.53,3.17,2.38,0.03-.39.06-0.58,0.06-0.76q0-18.645-.01-37.29c0-3.54-2.28-5.69-5.92-5.69H2182.2c-3.81,0-5.97,2.17-5.98,5.99v31.65c0,0.32.05,0.65,0.08,1.12,0.34-.27.55-0.43,0.75-0.61q10.185-8.985,20.37-17.98c4.14-3.64,8.43-3.5,12.25.43q7.455,7.68,14.91,15.37C2227.61,5949.79,2230.65,5952.91,2233.76,5956.12Zm11.38-59.99c-0.55-3.24-3.2-5.19-6.92-5.19q-34.89-.015-69.78.01a15.273,15.273,0,0,0-3.38.35c-5.99,1.41-9.79,6.35-9.8,12.7q-0.015,24.36,0,48.72a11.446,11.446,0,0,0,.05,1.17,6.183,6.183,0,0,0,5.2,5.66v-1.53c0-16.55.04-33.1-.02-49.65a11.964,11.964,0,0,1,12.31-12.28c9.06,0.14,41.12.04,50.18,0.04,0.36,0,.71-0.02,1.06.01a2.4,2.4,0,0,1,2.23,2.44,2.348,2.348,0,0,1-2.29,2.24c-0.39.02-.78,0.01-1.17,0.01-8.91,0-40.81-.01-49.72.02a11.362,11.362,0,0,0-2.79.3c-3.14.82-4.98,3.47-4.98,7.1v54.36c0,0.51.01,1.02,0.06,1.53a6.048,6.048,0,0,0,6.13,5.35v-1.39q0-25.77,0-51.54a10.167,10.167,0,0,1,10.78-10.59q35.715,0.045,71.43.02h1.5a10.132,10.132,0,0,0-.44-1.37c-1.32-2.7-3.58-3.79-6.49-3.79q-13.71.015-27.42,0c-0.43,0-.87.02-1.3-0.02a2.277,2.277,0,0,1-2.15-2.23,2.325,2.325,0,0,1,1.97-2.41,9.365,9.365,0,0,1,1.3-.04q11.58-.015,23.18,0h1.27Zm-3.13,24.14a10.06,10.06,0,1,1-10.06,10.1A10.108,10.108,0,0,1,2242.01,5920.27Zm-0.05,4.77a5.275,5.275,0,0,0-5.27,5.32A5.315,5.315,0,1,0,2241.96,5925.04Z" transform="translate(-2150.78 -5886.22)"/>
</svg>
