<?xml version="1.0" encoding="UTF-8"?><svg id="Layer_2" xmlns="http://www.w3.org/2000/svg" viewBox="0 0 16.25 13.24"><defs><style>.cls-1{fill:#00be95;}.cls-2{fill:none;stroke:#00be95;stroke-width:.2px;}</style></defs><g id="Layer_1-2"><path class="cls-1" d="m15.73,8.55c-.02.07-.07.13-.14.16l-12.06,3.42-1.65-2.85L10.91.56s.1-.06.15-.05c.06,0,.12.04.15.09l4.49,7.78s.04.11.02.17Zm-5.49,3.27l-3.01.83-.83-.92,4.09-1.16-.24,1.25ZM.64,10.47l.95-.91,1.55,2.68-1.25.39-1.25-2.16Zm15.42-2.3L11.56.39c-.1-.16-.27-.26-.45-.28-.18-.02-.35.04-.48.17L1.49,9.09l-1.36,1.3,1.57,2.72,1.8-.56,2.55-.72-.06.06,1.11,1.22,3.49-.97.32-1.65-.08-.02,4.89-1.39h.02c.18-.08.32-.23.38-.42.05-.17.03-.35-.06-.5Z"/><path class="cls-2" d="m15.73,8.55c-.02.07-.07.13-.14.16l-12.06,3.42-1.65-2.85L10.91.56s.1-.06.15-.05c.06,0,.12.04.15.09l4.49,7.78s.04.11.02.17Zm-5.49,3.27l-3.01.83-.83-.92,4.09-1.16-.24,1.25ZM.64,10.47l.95-.91,1.55,2.68-1.25.39-1.25-2.16Zm15.42-2.3L11.56.39c-.1-.16-.27-.26-.45-.28-.18-.02-.35.04-.48.17L1.49,9.09l-1.36,1.3,1.57,2.72,1.8-.56,2.55-.72-.06.06,1.11,1.22,3.49-.97.32-1.65-.08-.02,4.89-1.39h.02c.18-.08.32-.23.38-.42.05-.17.03-.35-.06-.5Z"/></g></svg>