<?xml version="1.0" encoding="UTF-8"?><svg id="Layer_2" xmlns="http://www.w3.org/2000/svg" viewBox="0 0 15.56 15.76"><defs><style>.cls-1{fill:#00be95;}</style></defs><g id="Layer_1-2"><path class="cls-1" d="m.8,9.77h1.31l-1.2,1.2h-.12v-1.2ZM.4,1.8h14.76v7.58H.4V1.8Zm14.36,9.18h-1.31l1.2-1.2h.12v1.2Zm-11.45,0h-.12v-1.2h1.31l-1.2,1.2Zm1.88-1.2v1.2h-1.31l1.2-1.2h.12Zm2.39,0v1.2h-1.31l1.2-1.2h.12Zm2.39,0v1.2h-1.31l1.2-1.2h.12Zm2.39,0v1.2h-1.31l1.2-1.2h.12Zm.4,1.2v-1.2h1.31l-1.2,1.2h-.12Zm-1.08-1.2l-1.2,1.2h-.12v-1.2h1.31Zm-2.39,0l-1.2,1.2h-.12v-1.2h1.31Zm-2.39,0l-1.2,1.2h-.12v-1.2h1.31Zm-5.42,1.2l1.2-1.2h.12v1.2h-1.31Zm1.31.4v4.39h.4v-4.39h9.18v4.39h.4v-4.39h2.59c.11,0,.2-.09.2-.2s-.09-.2-.2-.2h-.2v-1.2h.4V1.4h-2.79V.4h.4c.11,0,.2-.09.2-.2s-.09-.2-.2-.2h-1.2c-.11,0-.2.09-.2.2s.09.2.2.2h.4v1h-4.39V.4h.4c.11,0,.2-.09.2-.2s-.09-.2-.2-.2h-1.2c-.11,0-.2.09-.2.2s.09.2.2.2h.4v1H3.19V.4h.4c.11,0,.2-.09.2-.2s-.09-.2-.2-.2h-1.2c-.11,0-.2.09-.2.2s.09.2.2.2h.4v1H0v8.38h.4v1.2h-.2c-.11,0-.2.09-.2.2s.09.2.2.2h2.59Z"/></g></svg>