<?xml version="1.0" encoding="UTF-8"?><svg id="Layer_2" xmlns="http://www.w3.org/2000/svg" viewBox="0 0 14.79 16.55"><defs><style>.cls-1{fill:#00be95;}.cls-2{font-family:Cairo-Bold, Cairo;font-size:9.12px;font-weight:700;}</style></defs><g id="Layer_1-2"><text class="cls-2" transform="translate(12.78 11.72)"><tspan x="0" y="0"> </tspan></text><path class="cls-1" d="m5.03,6.12h-2.84v-1.75h2.84v1.75Zm.44-2.19H1.75v2.62h3.72v-2.62Z"/><path class="cls-1" d="m6.78,9.62h2.84v1.75h-2.84v-1.75Zm-.44,2.19h3.72v-2.62h-3.72v2.62Z"/><rect class="cls-1" x="1.75" y="2.41" width="8.31" height=".44"/><rect class="cls-1" x="1.75" y="7.66" width="8.31" height=".44"/><rect class="cls-1" x="6.34" y="4.16" width="3.72" height=".44"/><rect class="cls-1" x="6.34" y="5.91" width="3.72" height=".44"/><rect class="cls-1" x="1.75" y="9.41" width="3.72" height=".44"/><rect class="cls-1" x="1.75" y="11.16" width="3.72" height=".44"/><path class="cls-1" d="m13.56,12.91c0,.48-.39.88-.88.88s-.88-.39-.88-.88V1.75h1.75v11.16Zm-13.12-.22V.44h10.94v12.47c0,.32.12.64.34.88H1.53c-.6,0-1.09-.49-1.09-1.09ZM11.81,1.31V0H0v12.69c0,.85.69,1.53,1.53,1.53h11.16c.72,0,1.31-.59,1.31-1.31V1.31h-2.19Z"/></g></svg>