<?xml version="1.0" encoding="UTF-8"?><svg id="Layer_2" xmlns="http://www.w3.org/2000/svg" viewBox="0 0 19.02 17.35"><defs><style>.cls-1{fill:#00be95;}.cls-2{font-family:Cairo-Bold, Cairo;font-size:9.12px;font-weight:700;}</style></defs><g id="Layer_1-2"><text class="cls-2" transform="translate(17.01 12.52)"><tspan x="0" y="0"> </tspan></text><path class="cls-1" d="m9.37,8.57c.02.12.02.24,0,.36h2.4c-.02-.12-.02-.24,0-.36h-2.4Z"/><path class="cls-1" d="m0,8.93h1.56c-.02-.12-.02-.24,0-.36H.36V.36h15.31v8.2h-1.21c.02.12.02.24,0,.36h1.57V0H0v8.93Z"/><path class="cls-1" d="m4.27,8.57c.02.12.02.24,0,.36h2.4c0-.06-.01-.12-.01-.18,0-.06,0-.12.01-.18h-2.4Z"/><path class="cls-1" d="m1.82,10.68c.04-.17.19-.28.36-.29h1.46c.17,0,.31.11.36.27l.07.28h.31c.18,0,.34.13.36.32l-.26.78H1.36l-.26-.78c.02-.18.18-.31.36-.32h.29l.08-.26Zm-.35-.1h-.02c-.4,0-.73.33-.73.73l.36,1.09h3.64l.36-1.09c0-.4-.33-.73-.73-.73h-.02c-.08-.32-.38-.55-.71-.55h-1.46c-.33,0-.62.23-.71.55Z"/><path class="cls-1" d="m6.93,10.68c.04-.17.19-.28.36-.29h1.46c.17,0,.33.12.38.29l.08.26h.27c.18,0,.34.13.36.32l-.26.78h-3.12l-.26-.78c.02-.18.18-.31.36-.32h.29l.08-.26Zm-.35-.1h-.02c-.4,0-.73.33-.73.73l.36,1.09h3.64l.36-1.09c0-.4-.33-.73-.73-.73-.1-.32-.39-.54-.73-.55h-1.46c-.33,0-.62.23-.71.55Z"/><path class="cls-1" d="m12.03,10.68c.04-.17.19-.28.36-.29h1.46c.17,0,.33.12.38.29l.08.26h.27c.18,0,.34.13.36.32l-.26.78h-3.12l-.26-.78c.02-.18.18-.31.36-.32h.29l.08-.26Zm-.35-.1h-.02c-.4,0-.73.33-.73.73l.36,1.09h3.64l.36-1.09c0-.4-.33-.73-.73-.73-.1-.32-.39-.54-.73-.55h-1.46c-.33,0-.62.23-.71.55Z"/><path class="cls-1" d="m2.91,8.11c.35,0,.64.29.64.64s-.29.64-.64.64-.64-.29-.64-.64.29-.64.64-.64Zm0,1.64c.55,0,1-.45,1-1s-.45-1-1-1-1,.45-1,1,.45,1,1,1Z"/><path class="cls-1" d="m8.02,8.11c.35,0,.64.29.64.64s-.29.64-.64.64-.64-.29-.64-.64.29-.64.64-.64Zm0,1.64c.55,0,1-.45,1-1s-.45-1-1-1-1,.45-1,1,.45,1,1,1Z"/><path class="cls-1" d="m13.12,8.11c.35,0,.64.29.64.64s-.29.64-.64.64-.64-.29-.64-.64.29-.64.64-.64Zm0,1.64c.55,0,1-.45,1-1s-.45-1-1-1-1,.45-1,1,.45,1,1,1Z"/></g></svg>