<?xml version="1.0" encoding="UTF-8"?><svg id="Layer_2" xmlns="http://www.w3.org/2000/svg" viewBox="0 0 16.37 12.73"><defs><style>.cls-1{fill:#00be95;}.cls-2{stroke-width:.2px;}.cls-2,.cls-3{fill:none;stroke:#00be95;}.cls-3{stroke-width:.2px;}</style></defs><g id="Layer_1-2"><polygon class="cls-1" points="5.62 5.21 3.45 7.38 5.62 9.54 5.9 9.25 4.02 7.38 5.9 5.5 5.62 5.21"/><polygon class="cls-2" points="5.62 5.21 3.45 7.38 5.62 9.54 5.9 9.25 4.02 7.38 5.9 5.5 5.62 5.21"/><polygon class="cls-1" points="10.47 5.5 12.34 7.38 10.47 9.25 10.75 9.54 12.92 7.38 10.75 5.21 10.47 5.5"/><polygon class="cls-2" points="10.47 5.5 12.34 7.38 10.47 9.25 10.75 9.54 12.92 7.38 10.75 5.21 10.47 5.5"/><rect class="cls-1" x="5.65" y="7.27" width="5.07" height=".4" transform="translate(-1.94 12) rotate(-66.5)"/><rect class="cls-3" x="5.65" y="7.27" width="5.07" height=".4" transform="translate(-1.94 12) rotate(-66.5)"/><path class="cls-1" d="m15.86.51v2.42H.51V.51h15.36ZM.51,12.23V3.33h15.36v8.89H.51Zm-.4.4h16.17V.1H.1v12.53Z"/><path class="cls-2" d="m15.86.51v2.42H.51V.51h15.36ZM.51,12.23V3.33h15.36v8.89H.51Zm-.4.4h16.17V.1H.1v12.53Z"/><path class="cls-1" d="m11.62,1.72c0,.22-.18.4-.4.4s-.4-.18-.4-.4.18-.4.4-.4.4.18.4.4Z"/><circle class="cls-2" cx="11.22" cy="1.72" r=".4"/><path class="cls-1" d="m13.03,1.72c0,.22-.18.4-.4.4s-.4-.18-.4-.4.18-.4.4-.4.4.18.4.4Z"/><circle class="cls-2" cx="12.63" cy="1.72" r=".4"/><path class="cls-1" d="m14.45,1.72c0,.22-.18.4-.4.4s-.4-.18-.4-.4.18-.4.4-.4.4.18.4.4Z"/><circle class="cls-2" cx="14.04" cy="1.72" r=".4"/></g></svg>