<?xml version="1.0" encoding="UTF-8"?>
<svg id="Layer_2" data-name="Layer 2" xmlns="http://www.w3.org/2000/svg" viewBox="0 0 101.53 23.5">
  <defs>
    <style>
      .cls-1 {
        fill: #20d899;
      }

      .cls-2 {
        fill: #31354b;
      }
    </style>
  </defs>
  <g id="Layer_1-2" data-name="Layer 1">
    <g id="_7K2U9q" data-name="7K2U9q">
      <g>
        <g>
          <path class="cls-2" d="M39.55,14.8c-.06,.07-.09,.12-.12,.15-.96,1.04-1.92,2.07-2.88,3.11-.1,.11-.21,.16-.36,.16-.43,0-.85,0-1.29,0,0,.06,0,.11,0,.16,0,.42,0,.84,0,1.27,0,.13-.04,.23-.12,.33-1.06,1.15-2.12,2.29-3.19,3.44-.03,.04-.08,.05-.15,.1v-5.19c-.1,0-.19-.01-.29-.01-1.68,0-3.37,0-5.05-.01-1,0-1.97-.16-2.86-.63-1.62-.84-2.66-2.14-3.05-3.94-.38-1.78-.35-3.55,.26-5.28,.73-2.09,2.23-3.27,4.38-3.69,.76-.15,1.53-.12,2.3-.11,2.31,.01,4.62,.03,6.92,.04,.23,0,.45,.01,.68,.01,.12,0,.16,.04,.16,.17,0,3.24,0,6.48,0,9.73v.21h4.66Zm-8.14,.03c0-.07,0-.13,0-.18,0-2.14,0-4.29,0-6.43q0-.2-.2-.2c-1.25-.02-2.5-.04-3.76-.05-.63,0-1.26-.05-1.88,.07-.8,.16-1.43,.54-1.75,1.32-.49,1.2-.55,2.43-.17,3.67,.27,.88,.82,1.45,1.72,1.66,.35,.08,.72,.12,1.08,.13,1.59,.01,3.19,0,4.78,0h.16Z"/>
          <path class="cls-2" d="M14.22,15.04V.59c.06,0,.11,0,.15,0,1.04,0,2.07,0,3.11,0,.13,0,.17,.04,.17,.17,0,.32,.01,.65,.01,.97,0,4.08,0,8.16,0,12.24,0,1.22,0,2.45,0,3.67,0,.11,0,.23-.02,.34-.03,.19-.15,.31-.34,.34-.09,.01-.18,.02-.27,.02-2.49,0-4.97,0-7.46,0-1,0-2.01,0-3.01-.02-1.15-.03-2.28-.23-3.33-.71-1.7-.77-2.69-2.1-3.08-3.9C0,12.93,0,12.14,0,11.36c0-.66,0-1.31,0-1.97,0-.1,.01-.2,.02-.3H3.43c0,.08,0,.15,0,.23,0,.94,0,1.88,0,2.81,0,.45,.08,.9,.26,1.31,.33,.75,.94,1.15,1.7,1.38,.65,.19,1.31,.2,1.98,.2,2.23,0,4.46,0,6.68,.01,.05,0,.1,0,.17,0Z"/>
          <path class="cls-2" d="M5.37,9.18c.02-.84,.02-1.67,.05-2.5,.02-.44,.12-.86,.29-1.27,.45-1.09,1.26-1.74,2.44-1.84,.56-.05,1.12-.04,1.68-.03,.36,0,.37,.04,.37,.4,0,.63,0,1.27,0,1.9,0,.06,0,.11,0,.19-.18,0-.35,0-.52,0-.34,0-.68,.01-1.01,.02-.49,0-.65,.14-.76,.65h2.96c0,.06,0,.11,0,.15,0,.73,0,1.46,0,2.2,0,.12-.03,.15-.15,.15-1.74,0-3.48,0-5.22,0-.03,0-.06,0-.15-.01Z"/>
          <path class="cls-2" d="M45.56,4.67c0,.06,0,.11,0,.15,0,1.1,0,2.19,0,3.29,0,.16-.05,.29-.16,.4-1.07,1.15-2.15,2.31-3.22,3.46-.04,.04-.06,.09-.09,.14-.02-.01-.03-.02-.05-.03,0-.05,0-.1,0-.15,0-2.36,0-4.73,0-7.09,0-.14,.04-.19,.18-.18,1.06,0,2.13,0,3.19,0,.04,0,.08,0,.15,0Z"/>
          <path class="cls-2" d="M45.5,3.26h-3.49V0h3.49V3.26Z"/>
          <path class="cls-2" d="M41.3,0V3.25h-3.49V0h3.49Z"/>
        </g>
        <g>
          <path class="cls-1" d="M49.06,4.76V14.77c.07,0,.12,.02,.17,.02,1.4,0,2.8,0,4.19,0,.18,0,.18,0,.18-.19,0-2.89,0-5.78,.01-8.67,0-.37,0-.73,0-1.1,0-.08,.01-.12,.11-.12,1.07,0,2.15,0,3.22,0,.01,0,.03,0,.06,.01V14.84c1.43-.02,2.84-.03,4.26-.05,.02-3.37,.03-6.74,.05-10.1h3.41V14.79h8V4.66h3.39c0,.08,.01,.17,.01,.25,0,3.75,0,7.5,.01,11.25,0,.46,0,.91,0,1.37,0,.22-.04,.45-.06,.68H36.36c.05-.06,.09-.12,.14-.16,.97-1.04,1.95-2.07,2.92-3.11,.1-.11,.21-.13,.35-.13,1.9,0,3.79,0,5.69,0h.19c0-.07,0-.13,0-.19,0-2,0-4,0-6,0-.21,.06-.37,.2-.52,1.02-1.07,2.03-2.15,3.04-3.23,.04-.05,.08-.1,.12-.16,.02,.01,.04,.03,.06,.04Z"/>
          <path class="cls-1" d="M78.69,4.66h3.34V14.77h7.27c0-.07,.01-.14,.01-.22,0-.96,0-1.91,.02-2.87,.01-1.01,.09-2.01,.42-2.98,.34-1.01,.86-1.92,1.68-2.62,.76-.65,1.66-1,2.63-1.2,.68-.14,1.36-.12,2.05-.13,.65-.01,1.3,0,1.96,0,.14,0,.28,.01,.44,.02v3.39c-.06,0-.11,0-.17,0-.96,0-1.92,0-2.89,0-1.45,0-2.36,.71-2.69,2.13-.09,.4-.11,.82-.16,1.24-.02,.17-.01,.34-.01,.51,0,.91,0,1.82,0,2.75h8.93v3.41h-19.48v5.09h-3.36V4.66Z"/>
          <path class="cls-1" d="M71.57,23.15h-3.34v-3.25h3.34v3.25Z"/>
        </g>
      </g>
    </g>
  </g>
</svg>