<?xml version="1.0" standalone="no"?>
<!DOCTYPE svg PUBLIC "-//W3C//DTD SVG 20010904//EN"
 "http://www.w3.org/TR/2001/REC-SVG-20010904/DTD/svg10.dtd">
<svg version="1.0" xmlns="http://www.w3.org/2000/svg"
 width="260.000000pt" height="260.000000pt" viewBox="0 0 260.000000 260.000000"
 preserveAspectRatio="xMidYMid meet">
<metadata>
Created by potrace 1.14, written by Peter Selinger 2001-2017
</metadata>
<g transform="translate(0.000000,260.000000) scale(0.100000,-0.100000)"
fill="#000000" stroke="none">
<path d="M495 1913 c-5 -10 -9 -22 -11 -28 -1 -5 -25 -68 -54 -140 -57 -143
-128 -324 -167 -425 -14 -36 -29 -74 -34 -85 -5 -11 -26 -65 -47 -120 -21 -55
-43 -109 -47 -120 -5 -11 -7 -23 -7 -27 1 -5 -2 -8 -6 -8 -5 0 -9 -6 -9 -12 0
-7 -21 -65 -47 -130 -25 -64 -46 -124 -46 -132 0 -15 16 -16 137 -14 l137 3
75 191 c42 105 77 193 78 195 8 19 23 61 23 66 0 3 6 19 14 36 7 18 21 52 31
77 9 25 21 54 26 65 43 103 59 147 59 160 0 8 5 15 10 15 6 0 9 3 8 8 -2 7 47
139 60 159 7 11 25 16 52 14 16 -1 23 -15 65 -131 15 -41 38 -103 51 -137 13
-34 24 -63 24 -66 0 -2 8 -22 17 -43 9 -22 18 -43 19 -49 3 -10 16 -44 59
-160 14 -38 28 -74 29 -80 1 -5 8 -21 14 -35 6 -14 27 -70 47 -125 20 -55 43
-115 50 -132 l15 -33 135 0 c74 0 135 4 135 9 0 10 -18 68 -32 101 -6 14 -14
34 -18 45 -4 11 -17 44 -29 74 -12 29 -21 57 -21 61 0 4 -8 25 -17 46 -9 22
-18 44 -19 51 -2 13 -59 166 -74 198 -5 11 -39 101 -76 200 -71 194 -111 298
-124 330 -5 11 -19 48 -32 83 l-23 62 -211 0 c-192 0 -213 -2 -219 -17z"/>
<path d="M1534 1920 c-15 -5 -17 -24 -18 -131 l-1 -125 122 0 c68 1 123 -3
123 -7 0 -5 5 -5 12 -1 7 4 57 7 113 6 55 -1 145 -2 200 -2 62 0 109 -5 124
-12 50 -27 77 -90 65 -154 -7 -40 -51 -93 -84 -100 -14 -4 -167 -7 -342 -8
-174 0 -320 -4 -324 -8 -7 -8 -13 -674 -6 -695 3 -10 38 -13 128 -13 111 0
124 2 125 18 0 9 1 113 1 230 1 208 1 212 22 213 76 5 204 3 217 -3 14 -6 75
-103 135 -214 12 -22 34 -61 50 -85 16 -24 27 -47 26 -51 -1 -3 5 -12 13 -18
8 -7 15 -19 15 -26 0 -8 3 -14 8 -14 4 0 12 -10 17 -22 10 -22 16 -23 153 -26
78 -1 142 1 142 5 -1 5 -14 31 -30 58 -16 28 -43 75 -60 105 -17 30 -40 71
-51 90 -12 19 -32 55 -46 80 -13 25 -37 65 -53 90 -16 25 -29 48 -29 52 -1 3
23 20 53 36 29 17 67 47 84 67 33 41 85 142 85 165 0 8 3 20 7 25 12 18 3 168
-15 230 -29 102 -140 208 -240 229 -16 4 -41 9 -55 12 -34 8 -665 11 -686 4z"/>
</g>
</svg>
